<?xml version="1.0" encoding="utf-8"?>
<svg viewBox="0 0 500 500" xmlns="http://www.w3.org/2000/svg">
  <path id="preload-svg" d="M 241.029 416.726 C 193.495 390.729 153.126 359.611 111.31 325.596 C 96.642 313.664 80.874 303.288 67.043 290.327 C 60.897 284.569 47.93 265.381 47.93 273.803 C 47.93 307.798 132.117 381.446 153.234 410.314 C 165.559 427.162 176.848 445.003 188.254 462.476 C 193.837 471.03 199.768 496.885 205.023 488.126 C 209.159 481.234 194.989 447.897 192.693 440.773 C 179.815 400.817 165.051 361.152 150.028 321.896 C 143.319 304.363 136.426 286.949 130.176 269.24 C 126.952 260.104 120.596 232.955 118.832 242.481 C 110.492 287.518 117.638 338.677 114.639 384.664 C 113.461 402.739 111.367 419.651 107.364 437.32 C 105.54 445.373 94.441 464.95 101.939 461.49 C 137.35 445.146 165.404 420.971 203.79 408.094 C 213.429 404.86 259.395 401.194 265.937 394.653 C 279.255 381.336 234.491 373.91 219.08 363.084 C 215.123 360.304 178.723 333.182 173.371 338.536 C 157.202 354.705 187.239 375.634 188.254 374.182 C 200.567 356.571 166.782 333.469 178.142 335.214 C 180.11 335.516 193.366 348.154 194.666 340.517 C 196.356 330.586 173.499 298.782 180.623 305.905 C 200.727 326.006 223.775 352.48 232.767 380.101 C 233.398 382.037 241.832 414.529 229.561 409.327 C 186.31 390.991 202.163 273.061 174.197 233.355 C 167.822 224.305 152.789 196.213 137.328 197.84 C 129.579 198.656 142.444 225.578 143.37 227.806 C 150.303 244.484 183.74 316.021 205.763 321.526 C 207.034 321.844 203.529 297.649 204.9 293.533 C 205.018 293.18 216.846 305.018 218.918 304.81 C 226.067 304.095 210.67 281.285 217.601 283.175 C 219.071 283.576 233.505 295.474 234.241 291.797 C 235.874 283.63 220.75 255.083 225.616 261.841 C 238.524 279.772 292.95 345.178 285.173 368.51 C 280.765 381.733 241.506 331.649 242.262 314.251 C 242.429 310.407 256.187 222.244 237.083 238.165 C 231.965 242.43 243.831 273.913 247.641 271.374 C 255.308 266.262 240.138 232.633 247.688 237.918 C 249.944 239.498 257.848 256.975 261.706 253.76 C 271.012 246.005 255.417 198.156 253.113 210.049 C 250.46 223.744 286.825 271.854 292.965 284.628 C 301.208 301.776 313.192 345.966 320.315 328.802 C 322.117 324.459 274.472 243.165 270.767 227.612 C 268.011 216.044 246.418 183.616 254.443 194.166 C 259.396 200.677 327.539 238.94 304.383 209.912 C 297.158 198.187 266.218 320.227 307.615 256.909" style="stroke: rgb(0, 0, 0); fill: rgb(238, 238, 238); stroke-width: 6px;"/>
</svg>