<?xml version="1.0" encoding="utf-8"?>
<svg viewBox="0 0 500 500" xmlns="http://www.w3.org/2000/svg">
  <path d="M 337.014 395.396 C 332.1 386.941 327.661 378.172 322.272 370.031 C 317.622 363.005 286.535 323.132 283.142 318.734 C 274.938 308.097 266.824 297.387 258.571 286.79 C 250.384 276.279 241.986 265.942 233.819 255.412 C 223.238 241.765 212.89 227.927 202.334 214.262 C 193.052 202.246 183.084 190.783 174.305 178.371 C 157.665 154.847 138.526 121.348 122.434 97.012 C 97.344 59.065 114.085 85.664 93.86 59.243 C 91.481 56.136 89.658 52.604 87.307 49.472 C 85.864 47.546 84.004 45.993 82.395 44.211 C 82.043 43.823 81.644 43.48 81.303 43.084 C 81.156 42.916 80.927 42.295 80.938 42.52 C 81.329 49.776 85.774 58.737 88.037 63.941 C 90.904 70.534 94.527 76.752 97.5 83.295 C 108.291 107.041 111.662 115.938 119.523 141.92 C 123.456 154.919 126.563 168.174 130.444 181.191 C 137.068 203.422 153.223 252.729 160.292 274.576 C 164.849 288.667 169.032 302.891 173.941 316.854 C 202.428 397.888 172.188 305.19 195.598 374.351 C 198.378 382.561 200.566 390.976 203.426 399.155 C 206.152 406.955 209.365 414.565 212.344 422.265 C 214.886 428.846 217.163 435.54 219.988 441.997 C 222.265 447.205 225.106 452.131 227.631 457.216 C 228.745 459.459 229.778 461.744 230.908 463.979 C 231.323 464.803 232.344 467.547 233.456 467.738 C 233.589 467.761 233.792 467.687 233.819 467.55 C 234.53 464 235.406 460.457 235.639 456.84 C 236.135 449.153 236.303 441.427 236.004 433.727 C 234.96 406.892 231.223 382.778 227.814 355.937 C 224.341 328.609 216.793 272.826 214.891 245.641 C 213.776 229.705 213.65 213.703 213.617 197.727 C 213.505 141.386 214.923 169.699 218.348 114.862 C 219.084 103.106 219.24 91.315 219.442 79.538 C 219.602 70.207 219.479 60.872 219.442 51.539 C 219.419 45.777 219.58 40.006 219.259 34.252 C 219.153 32.34 218.74 30.439 218.166 28.616 C 217.994 28.067 217.523 27.647 217.075 27.3 C 216.768 27.063 216.241 26.63 215.983 26.925 C 210.498 33.216 208.045 44.736 205.791 51.351 C 195.622 81.194 200.935 66.615 189.775 97.576 C 182.185 118.635 169.768 152.977 161.565 172.36 C 152.77 193.141 130.448 240.129 119.706 259.921 C 112.477 273.237 104.769 286.288 96.59 299.004 C 82.153 321.452 71.258 334.403 55.094 354.622 C 46.209 365.737 37.093 376.656 28.34 387.881 C 26.385 390.388 24.561 393.004 22.699 395.584 C 22.074 396.449 21.456 397.318 20.878 398.215 C 20.727 398.449 20.244 398.948 20.514 398.967 C 21.499 399.039 22.543 398.859 23.426 398.403 C 27.68 396.208 31.646 393.459 35.802 391.076 C 50.995 382.361 49.458 382.195 67.834 378.862 C 74.576 377.639 109.526 373.875 115.155 373.226 C 131.279 371.363 154.361 368.23 170.483 367.587 C 179.88 367.213 189.303 367.246 198.693 367.775 C 207.102 368.25 215.438 369.645 223.809 370.594 C 237.462 372.141 251.063 374.249 264.76 375.293 C 269.722 375.669 274.707 375.602 279.684 375.667 C 289.847 375.8 300.101 375.231 310.26 375.667 C 313.206 375.795 316.034 376.419 318.997 376.419 C 319.483 376.419 321.033 376.683 321.545 376.419 C 321.761 376.307 321.545 375.917 321.545 375.667 C 321.545 375.293 321.578 374.914 321.545 374.539 C 321.274 371.53 321.239 368.477 320.634 365.52 C 318.541 355.299 314.625 344.572 310.625 335.08 C 307.787 328.349 304.499 321.83 301.524 315.163 C 299.262 310.094 287.52 282.7 284.416 276.644 C 282.345 272.606 268.247 248.421 265.123 243.949 C 262.861 240.709 260.028 237.937 257.479 234.93 C 255.357 232.425 253.207 229.942 251.11 227.414 C 248.444 224.205 246.284 221.155 242.738 218.959 C 241.384 218.12 238.834 216.867 237.277 218.207 C 236.106 219.215 235.333 221.734 234.912 222.904 C 234.329 224.521 233.697 226.123 233.274 227.789 C 231.967 232.934 231.484 237.862 231.272 243.199 C 231.208 244.772 231.038 253.752 231.635 256.914 C 231.857 258.081 232.345 259.176 232.727 260.296 C 233.488 262.522 234.115 265.949 236.731 266.685 C 237.433 266.883 238.187 266.685 238.914 266.685 C 239.522 266.685 240.172 266.918 240.736 266.685 C 244.398 265.173 245.585 256.728 245.832 255.412 C 247.737 245.253 246.629 236.573 246.378 226.286 C 246.3 223.109 246.378 219.893 246.378 216.705 C 246.378 216.579 246.315 216.972 246.378 217.079 C 246.871 217.928 247.477 218.701 248.015 219.523 C 248.752 220.643 249.379 221.846 250.2 222.904 C 252.473 225.839 255.362 228.113 259.118 227.789 C 259.854 227.726 260.755 227.927 261.303 227.414 C 262.226 226.547 262.759 225.266 263.122 224.032 C 265.225 216.866 265.102 213.534 265.305 206.182 C 265.399 202.87 265.305 199.538 265.305 196.223 C 265.305 195.846 265.305 195.472 265.305 195.096 C 265.305 194.97 265.185 194.72 265.305 194.72 C 265.478 194.72 266.673 185.751 266.792 185.879 C 268.432 187.63 268.916 198.635 270.583 200.356 C 278.752 208.789 277.801 206.787 285.508 217.455 C 293.746 228.858 300.782 241.036 306.984 253.72 C 308.377 256.571 309.66 259.48 310.989 262.363 C 312.025 264.616 313.218 266.8 314.082 269.128 C 314.619 270.575 314.88 272.118 315.174 273.638 C 316.406 279.996 316.69 282.379 316.266 289.233 C 316.083 292.195 316.154 295.274 315.174 298.064 C 314.106 301.104 312.157 303.759 310.26 306.332 C 308.075 309.295 305.842 312.333 302.98 314.599 C 297.229 319.151 288.411 321.222 281.503 321.741 C 278.107 321.995 274.509 322.199 271.313 320.988 C 267.662 319.607 264.285 317.19 261.666 314.224 C 259.16 311.386 257.736 307.655 256.387 304.077 C 254.801 299.865 253.061 290.985 253.84 286.04 C 254.234 283.536 255.228 281.135 256.387 278.899 C 267.941 256.636 255.978 285.253 268.035 259.732 C 269.957 255.666 271.078 251.235 272.95 247.142 C 274.724 243.265 277.013 239.661 278.957 235.869 C 286.349 221.441 282.707 227.937 289.331 214.262 C 290.859 211.103 292.664 208.086 294.062 204.866 C 297.955 195.907 299.933 189.289 300.614 179.124 C 301.065 172.376 301.099 165.56 300.432 158.831 C 297.579 130.011 285.611 102.951 275.862 76.154 C 272.759 67.627 266.769 49.328 262.758 40.641 C 260.827 36.462 258.42 32.531 256.024 28.616 C 253.384 24.304 250.807 20.287 246.924 17.155 C 246.374 16.711 243.404 15.281 242.555 15.462 C 238.026 16.437 238.679 25.656 238.552 27.3 C 237.791 37.144 238.578 52.258 239.826 61.686 C 240.397 66.003 245.2 87.891 246.195 92.314 C 248.486 102.484 251.215 114.804 254.385 124.821 C 258.512 137.854 259.398 137.857 264.213 149.999 C 265.268 152.659 266.07 155.42 267.126 158.078 C 268.012 160.309 269.161 162.421 270.038 164.656 C 273.029 172.281 275.414 180.177 278.957 187.579 C 280.423 190.645 282.192 193.548 283.688 196.599 C 285.84 200.989 287.393 206.217 290.422 210.128 C 291.509 211.529 292.516 208.696 292.606 208.06 C 292.879 206.135 292.874 204.178 292.971 202.235 C 293.285 195.825 293.334 189.481 293.334 183.07 C 293.334 180.149 293.138 180.075 293.698 177.621 C 293.786 177.234 293.79 176.772 294.062 176.493 C 296.208 174.276 300.409 179.77 300.797 180.063 C 301.914 180.907 303.251 181.39 304.436 182.13 C 308.035 184.379 307.578 184.659 311.535 186.641 C 313.351 187.549 313.473 187.39 315.174 187.39 C 315.538 187.39 316.147 187.746 316.266 187.39 C 318.298 181.398 317.961 173.634 318.086 167.662 C 318.139 165.157 318.086 162.651 318.086 160.145 C 318.086 159.708 317.941 159.242 318.086 158.831 C 318.564 157.476 320.521 158.108 321.363 158.454 C 323.915 159.509 325.999 160.832 328.825 161.085 C 329.143 161.114 331.381 161.346 331.737 160.521 C 332.346 159.106 332.638 157.549 332.828 156.012 C 333.614 149.687 333.874 141.678 333.192 135.344 C 333.079 134.28 332.518 133.317 332.1 132.337 C 331.848 131.747 331.401 131.252 331.19 130.645 C 331.088 130.351 331.08 129.414 331.19 129.705 C 331.962 131.733 332.257 133.954 333.192 135.907 C 368.364 209.319 305.712 72.827 346.114 161.649 C 348.939 167.858 361.162 194.507 363.951 200.733 C 366.97 207.474 369.789 214.312 372.869 221.026 C 378.019 232.25 383.516 243.265 388.704 254.472 C 395.316 268.758 392.469 261.477 396.711 274.953 C 397.358 277.01 399.271 282.426 399.623 284.912 C 399.78 286.027 399.623 287.166 399.623 288.294 C 399.623 289.17 399.737 290.057 399.623 290.925 C 399.552 291.455 399.584 292.317 399.078 292.428 C 391.953 293.988 385.925 287.868 380.514 284.537 C 375.364 281.368 370.346 277.978 365.225 274.765 C 360.76 271.965 356.183 269.357 351.756 266.498 C 347.749 263.907 343.652 261.424 339.928 258.418 C 330.076 250.469 320.178 239.739 320.817 225.911 C 320.886 224.405 320.819 222.862 321.18 221.401 C 322.13 217.562 324.833 214.319 327.004 211.254 C 339.736 193.282 325.534 213.35 335.558 199.98 C 338.881 195.548 344.101 187.911 346.842 183.446 C 348.764 180.314 350.71 177.184 352.302 173.863 C 353.752 170.839 354.759 167.611 355.942 164.468 C 356.881 161.973 357.973 159.529 358.674 156.952 C 360.03 151.944 359.766 150.276 359.766 145.489 C 359.766 143.548 359.955 141.597 359.766 139.664 C 359.487 136.848 357.695 130.549 356.67 128.202 C 356.131 126.968 355.229 125.938 354.485 124.821 C 353.772 123.745 353.177 122.567 352.302 121.626 C 351.557 120.825 349.037 119.431 347.934 119.183 C 347.183 119.014 345.38 118.912 344.84 119.936 C 344.29 120.978 343.884 122.138 343.748 123.318 C 343.396 126.368 343.105 129.466 343.385 132.525 C 343.727 136.28 345.476 140.048 347.024 143.422 C 347.101 143.589 349.027 147.745 349.573 148.309 C 349.843 148.588 350.283 148.651 350.665 148.684 C 352.377 148.832 352.341 147.614 352.848 145.866 C 353.35 144.136 354.343 139.048 354.668 137.033 C 354.818 136.099 354.768 135.124 355.033 134.216 C 355.144 133.83 355.373 133.309 355.76 133.276 C 356.301 133.23 356.779 133.697 357.216 134.028 C 357.217 134.028 362.313 138.537 362.313 138.537 C 362.965 138.953 363.744 139.133 364.496 139.289 C 364.972 139.388 365.649 139.681 365.953 139.289 C 367.003 137.932 367.782 136.29 368.136 134.592 C 370.135 125.039 369.759 122.028 367.772 112.983 C 364.592 98.496 367.786 115.858 365.225 106.029 C 365.035 105.303 365.083 104.529 365.043 103.776 C 365.022 103.4 365.043 103.024 365.043 102.648 C 365.043 102.523 364.981 102.166 365.043 102.273 C 373.197 116.431 364.567 103.091 377.236 123.318 C 380.298 128.204 383.817 132.786 386.701 137.787 C 396.391 154.589 397.821 161.135 406.539 179.688 C 431.226 232.231 407.75 179.747 434.021 233.991 C 438.27 242.763 441.921 251.831 446.032 260.672 C 449.263 267.617 452.829 274.39 456.043 281.342 C 458.594 286.856 460.938 292.471 463.324 298.064 C 464.517 300.864 465.591 303.719 466.78 306.52 C 467.108 307.29 467.64 307.97 467.873 308.775 C 468.013 309.255 468.013 310.758 467.873 310.278 C 458.395 277.661 472.274 314.41 448.399 260.86 C 430.586 220.908 423.525 205.295 407.084 164.844 C 397.574 141.44 388.907 117.85 381.059 93.817 C 379.465 88.937 377.993 84.014 376.326 79.162 C 375.626 77.122 374.807 75.127 373.961 73.148 C 373.653 72.43 373.193 71.79 372.869 71.081 C 372.706 70.723 372.206 69.707 372.504 69.953 C 380.614 76.651 386.513 83.345 393.981 90.998 C 402.628 99.861 409.471 107.216 418.915 115.049 C 424.858 119.98 426.78 121.264 433.293 123.505 C 433.992 123.746 434.742 123.805 435.477 123.881 C 435.961 123.932 436.449 123.881 436.933 123.881 C 437.054 123.881 437.403 123.944 437.297 123.881 C 435.628 122.887 434.103 121.379 432.201 121.062 C 427.589 120.291 422.688 119.387 418.187 120.686 C 405.567 124.33 395.014 136.489 387.974 146.806 C 383.549 153.29 379.538 160.221 376.873 167.662 C 373.043 178.348 370.612 190.871 386.518 192.465 C 453.229 199.148 387.854 185.017 438.207 178.935" style="fill: rgb(216, 216, 216); stroke: rgba(0, 0, 0, 0.52); stroke-width: 6px;"/>
</svg>